<svg xmlns="http://www.w3.org/2000/svg" version="1.1" xmlns:xlink="http://www.w3.org/1999/xlink" xmlns:svgjs="http://svgjs.com/svgjs" width="640" height="1000" preserveAspectRatio="none" viewBox="0 0 640 1000"><g mask="url(&quot;#SvgjsMask1053&quot;)" fill="none"><rect width="640" height="1000" x="0" y="0" fill="rgba(242, 243, 245, 1)"></rect><path d="M-57.18 399.33 a153.73 153.73 0 1 0 307.46 0 a153.73 153.73 0 1 0 -307.46 0z" fill="rgba(206, 210, 191, 0.4)" class="triangle-float1"></path><path d="M23.21 228.45 a120.81 120.81 0 1 0 241.62 0 a120.81 120.81 0 1 0 -241.62 0z" fill="rgba(206, 210, 191, 0.4)" class="triangle-float1"></path><path d="M289.42 210.75 a164.42 164.42 0 1 0 328.84 0 a164.42 164.42 0 1 0 -328.84 0z" fill="rgba(206, 210, 191, 0.4)" class="triangle-float3"></path><path d="M-38.25 666.93 a191.49 191.49 0 1 0 382.98 0 a191.49 191.49 0 1 0 -382.98 0z" fill="rgba(206, 210, 191, 0.4)" class="triangle-float3"></path></g><defs><mask id="SvgjsMask1053"><rect width="640" height="1000" fill="#ffffff"></rect></mask><style>
            @keyframes float1 {
                0%{transform: translate(0, 0)}
                50%{transform: translate(-10px, 0)}
                100%{transform: translate(0, 0)}
            }

            .triangle-float1 {
                animation: float1 5s infinite;
            }

            @keyframes float2 {
                0%{transform: translate(0, 0)}
                50%{transform: translate(-5px, -5px)}
                100%{transform: translate(0, 0)}
            }

            .triangle-float2 {
                animation: float2 4s infinite;
            }

            @keyframes float3 {
                0%{transform: translate(0, 0)}
                50%{transform: translate(0, -10px)}
                100%{transform: translate(0, 0)}
            }

            .triangle-float3 {
                animation: float3 6s infinite;
            }
        </style></defs></svg>